<svg width="25" height="24" viewBox="0 0 25 24" fill="none" xmlns="http://www.w3.org/2000/svg">
<path d="M4.25 4.75C4.25 4.19772 4.69772 3.75 5.25 3.75H9.75C10.3023 3.75 10.75 4.19772 10.75 4.75V9.25C10.75 9.80228 10.3023 10.25 9.75 10.25H5.25C4.69772 10.25 4.25 9.80228 4.25 9.25V4.75Z" fill="#121331" stroke="#121331" stroke-width="1.5"/>
<path d="M4.25 14.75C4.25 14.1977 4.69772 13.75 5.25 13.75H9.75C10.3023 13.75 10.75 14.1977 10.75 14.75V19.25C10.75 19.8023 10.3023 20.25 9.75 20.25H5.25C4.69772 20.25 4.25 19.8023 4.25 19.25V14.75Z" fill="#121331" stroke="#121331" stroke-width="1.5"/>
<path d="M14.25 4.75C14.25 4.19772 14.6977 3.75 15.25 3.75H19.75C20.3023 3.75 20.75 4.19772 20.75 4.75V9.25C20.75 9.80228 20.3023 10.25 19.75 10.25H15.25C14.6977 10.25 14.25 9.80228 14.25 9.25V4.75Z" fill="#121331" stroke="#121331" stroke-width="1.5"/>
<path d="M17.5 14V20" stroke="#121331" stroke-width="2" stroke-miterlimit="10" stroke-linecap="round"/>
<path d="M20.5 17H14.5" stroke="#121331" stroke-width="2" stroke-miterlimit="10" stroke-linecap="round"/>
</svg>
